<?xml version="1.0" encoding="UTF-8" standalone="no"?>
<!DOCTYPE svg PUBLIC "-//W3C//DTD SVG 1.1//EN" "http://www.w3.org/Graphics/SVG/1.1/DTD/svg11.dtd">
<svg width="100%" height="100%" viewBox="0 0 1024 1024" version="1.1" xmlns="http://www.w3.org/2000/svg" xmlns:xlink="http://www.w3.org/1999/xlink" xml:space="preserve" xmlns:serif="http://www.serif.com/" style="fill-rule:evenodd;clip-rule:evenodd;stroke-linejoin:round;stroke-miterlimit:2;">
    <rect id="icon" x="0" y="0" width="1024" height="1024" style="fill:none;"/>
    <clipPath id="_clip1">
        <rect id="icon1" serif:id="icon" x="0" y="0" width="1024" height="1024"/>
    </clipPath>
    <g clip-path="url(#_clip1)">
        <g transform="matrix(1.90263,0,0,2.45925,-429.75,-917.57)">
            <ellipse cx="494.972" cy="581.303" rx="269.101" ry="208.193" style="fill:rgb(225,225,225);"/>
        </g>
        <g transform="matrix(15.237,0,0,15.237,-7747.43,-7168.74)">
            <g transform="matrix(43.9401,0,0,43.9401,515.328,518.499)">
                <path d="M0.348,0.012C0.291,0.012 0.24,-0.002 0.195,-0.029C0.15,-0.056 0.115,-0.094 0.09,-0.145C0.065,-0.196 0.052,-0.257 0.052,-0.328C0.052,-0.399 0.065,-0.459 0.091,-0.51C0.117,-0.561 0.153,-0.6 0.198,-0.627C0.243,-0.654 0.295,-0.668 0.353,-0.668C0.398,-0.668 0.436,-0.66 0.468,-0.643C0.499,-0.626 0.523,-0.607 0.542,-0.587L0.496,-0.533C0.479,-0.55 0.46,-0.565 0.438,-0.577C0.416,-0.589 0.388,-0.595 0.355,-0.595C0.311,-0.595 0.273,-0.584 0.24,-0.563C0.207,-0.541 0.182,-0.51 0.165,-0.471C0.147,-0.432 0.138,-0.385 0.138,-0.33C0.138,-0.247 0.157,-0.182 0.195,-0.134C0.232,-0.085 0.286,-0.061 0.356,-0.061C0.379,-0.061 0.402,-0.065 0.423,-0.072C0.444,-0.079 0.461,-0.088 0.474,-0.1L0.474,-0.271L0.335,-0.271L0.335,-0.34L0.55,-0.34L0.55,-0.064C0.529,-0.042 0.502,-0.024 0.467,-0.01C0.432,0.005 0.392,0.012 0.348,0.012Z" style="fill:rgb(60,60,60);fill-rule:nonzero;"/>
            </g>
            <g transform="matrix(43.9401,0,0,43.9401,542.439,518.499)">
                <path d="M0.09,-0L0.09,-0.656L0.285,-0.656C0.33,-0.656 0.369,-0.651 0.403,-0.64C0.436,-0.629 0.462,-0.612 0.482,-0.589C0.501,-0.566 0.51,-0.535 0.51,-0.496C0.51,-0.463 0.502,-0.434 0.486,-0.408C0.469,-0.381 0.445,-0.363 0.414,-0.353L0.414,-0.349C0.453,-0.342 0.486,-0.325 0.511,-0.299C0.536,-0.273 0.548,-0.237 0.548,-0.192C0.548,-0.149 0.538,-0.114 0.517,-0.085C0.496,-0.056 0.466,-0.035 0.429,-0.021C0.392,-0.007 0.348,-0 0.299,-0L0.09,-0ZM0.173,-0.377L0.27,-0.377C0.326,-0.377 0.366,-0.387 0.391,-0.406C0.416,-0.425 0.428,-0.452 0.428,-0.485C0.428,-0.523 0.415,-0.55 0.39,-0.566C0.364,-0.582 0.325,-0.59 0.274,-0.59L0.173,-0.59L0.173,-0.377ZM0.173,-0.066L0.287,-0.066C0.344,-0.066 0.388,-0.077 0.419,-0.098C0.45,-0.119 0.466,-0.151 0.466,-0.195C0.466,-0.236 0.451,-0.266 0.42,-0.285C0.389,-0.304 0.344,-0.313 0.287,-0.313L0.173,-0.313L0.173,-0.066Z" style="fill:rgb(60,60,60);fill-rule:nonzero;"/>
            </g>
        </g>
    </g>
</svg>
